<svg width="100" height="100" viewBox="0 0 100 100" fill="none" xmlns="http://www.w3.org/2000/svg">
<g id="4a4fc24a-69b3-476b-b6d9-e7597cda526e_enhance_icon_(1) 1" clip-path="url(#clip0_2_59)">
<g id="Clip path group">
<mask id="mask0_2_59" style="mask-type:luminance" maskUnits="userSpaceOnUse" x="0" y="0" width="100" height="100">
<g id="clip0_560_6877">
<path id="Vector" d="M100 0H0V100H100V0Z" fill="white"/>
</g>
</mask>
<g mask="url(#mask0_2_59)">
<g id="Group">
<path id="Vector_2" fill-rule="evenodd" clip-rule="evenodd" d="M50 100C77.6142 100 100 77.6142 100 50C100 22.3858 77.6142 0 50 0C22.3858 0 0 22.3858 0 50C0 77.6142 22.3858 100 50 100Z" fill="#D9DADC"/>
<path id="Vector_3" fill-rule="evenodd" clip-rule="evenodd" d="M50 100C77.6142 100 100 77.6142 100 50C100 22.3858 77.6142 0 50 0C22.3858 0 0 22.3858 0 50C0 77.6142 22.3858 100 50 100Z" fill="#EEEEEE"/>
<path id="Vector_4" d="M78.5508 50.0814L82.1739 50.9785C83.0756 51.1983 83.9239 51.598 84.6677 52.1533C85.4114 52.7086 86.0356 53.4081 86.5027 54.2103C86.9698 55.0125 87.2703 55.9006 87.3861 56.8216C87.502 57.7425 87.4309 58.6774 87.177 59.5703L83.7266 72.8892C83.2497 74.6549 82.0916 76.1591 80.5064 77.0713C78.9214 77.9836 77.0389 78.2292 75.2728 77.7545L71.8223 76.8574L78.7233 49.2533C78.7233 41.4745 75.6333 34.0145 70.133 28.5142C64.6327 23.0139 57.1725 19.9238 49.3939 19.9238C41.6153 19.9238 34.1552 23.0139 28.6548 28.5142C23.1545 34.0145 20.0645 41.4745 20.0645 49.2533L26.9655 76.8574L23.515 77.7545C21.7487 78.2292 19.8664 77.9836 18.2812 77.0713C16.6962 76.1591 15.538 74.6549 15.0612 72.8892L11.2656 59.5703C10.7909 57.8041 11.0366 55.9217 11.9489 54.3366C12.8611 52.7516 14.3653 51.5933 16.1309 51.1166L19.7539 50.2194" stroke="black" stroke-width="2" stroke-miterlimit="10"/>
<path id="Vector_5" d="M11.7188 53.9062C11.7188 52.6562 16.927 51.823 19.5312 51.5625L27.3438 76.5625C24.7395 77.3438 19.0625 78.4375 17.1875 76.5625C14.8438 74.2188 11.7188 55.4688 11.7188 53.9062Z" fill="black"/>
<path id="Vector_6" d="M80.9733 77.7452C80.3364 78.8208 75.4301 76.8841 73.0567 75.7813L79.0725 50.2892C81.7114 50.9438 87.1536 52.8953 87.8115 55.4641C88.634 58.6749 81.7694 76.4008 80.9733 77.7452Z" fill="black"/>
<path id="Vector_7" d="M43.5921 26.484L35.8581 18.75L28.1241 26.484L35.8581 34.218L43.5921 26.484Z" fill="#D9D9D9"/>
<path id="Vector_8" d="M35.8563 13.9161C36.24 13.9161 36.61 14.0595 36.8934 14.3183C37.1769 14.5771 37.3533 14.9325 37.3881 15.3147C37.5113 16.6477 38.0731 18.76 39.3445 20.5894C40.5874 22.3735 42.4761 23.8624 45.3472 24.1782C45.7238 24.2197 46.0717 24.3986 46.3245 24.6807C46.5774 24.9628 46.717 25.3283 46.717 25.7071C46.717 26.0858 46.5774 26.4513 46.3245 26.7335C46.0717 27.0157 45.7238 27.1946 45.3472 27.236C42.4761 27.5517 40.5874 29.0407 39.3445 30.8269C38.2716 32.3989 37.5999 34.2099 37.3881 36.1014C37.3513 36.4819 37.1741 36.835 36.891 37.0919C36.608 37.3488 36.2395 37.4911 35.8572 37.4911C35.475 37.4911 35.1064 37.3488 34.8234 37.0919C34.5405 36.835 34.3633 36.4819 34.3263 36.1014C34.1147 34.2099 33.443 32.3989 32.3699 30.8269C31.127 29.0427 29.2383 27.5517 26.3672 27.238C25.9888 27.1988 25.6383 27.0207 25.3836 26.7382C25.1288 26.4555 24.9878 26.0886 24.9878 25.7082C24.9878 25.3277 25.1288 24.9607 25.3836 24.6782C25.6383 24.3955 25.9888 24.2175 26.3672 24.1782C29.2383 23.8624 31.127 22.3735 32.3699 20.5894C33.6414 18.76 34.2033 16.6477 34.3263 15.3147C34.3611 14.9329 34.5372 14.5777 34.8203 14.319C35.1033 14.0603 35.4728 13.9166 35.8563 13.9161ZM31.3445 25.7082C32.7538 26.5644 33.9647 27.7108 34.8964 29.0714C35.2614 29.5964 35.5794 30.1378 35.8563 30.6813C36.1352 30.1378 36.453 29.5964 36.82 29.0714C37.7508 27.7113 38.9602 26.5649 40.368 25.7082C38.96 24.8514 37.7506 23.7049 36.82 22.3449C36.4627 21.8307 36.1406 21.2928 35.8563 20.735C35.5794 21.2785 35.2614 21.8199 34.8964 22.3449C33.9647 23.7053 32.7538 24.8519 31.3445 25.7082ZM43.4113 12.4847C46.6988 11.4429 48.4028 8.84248 49.1494 6.68095C49.2314 6.44717 49.982 6.44717 50.0641 6.68095C50.8105 8.84248 52.5147 11.4429 55.802 12.4847C56.038 12.5585 56.038 13.223 55.802 13.2968C52.5147 14.3386 50.8105 16.9369 50.0641 19.1005C49.982 19.3342 49.2314 19.3342 49.1494 19.1005C48.4028 16.9369 46.6988 14.3386 43.4113 13.2968C43.1755 13.223 43.1755 12.5585 43.4113 12.4847Z" fill="black"/>
<path id="Vector_9" d="M41.7297 40.2344C41.7297 39.8545 41.572 39.4903 41.2911 39.2217C41.0103 38.9531 40.6295 38.8022 40.2323 38.8022C39.8351 38.8022 39.4544 38.9531 39.1736 39.2217C38.8926 39.4903 38.735 39.8545 38.735 40.2344V66.0156C38.735 66.3956 38.8926 66.7598 39.1736 67.0284C39.4544 67.297 39.8351 67.448 40.2323 67.448C40.6295 67.448 41.0103 67.297 41.2911 67.0284C41.572 66.7598 41.7297 66.3956 41.7297 66.0156V40.2344ZM35.7401 48.8281C35.7401 48.4483 35.5823 48.0841 35.3015 47.8155C35.0208 47.5469 34.6398 47.3959 34.2428 47.3959C33.8456 47.3959 33.4647 47.5469 33.1839 47.8155C32.9031 48.0841 32.7453 48.4483 32.7453 48.8281V57.4219C32.7453 57.8019 32.9031 58.1661 33.1839 58.4347C33.4647 58.7033 33.8456 58.8542 34.2428 58.8542C34.6398 58.8542 35.0208 58.7033 35.3015 58.4347C35.5823 58.1661 35.7401 57.8019 35.7401 57.4219V48.8281ZM46.2219 44.5312C46.6191 44.5312 47 44.6822 47.2808 44.9508C47.5616 45.2194 47.7194 45.5837 47.7194 45.9636V60.2866C47.7194 60.6664 47.5616 61.0306 47.2808 61.2994C47 61.568 46.6191 61.7187 46.2219 61.7187C45.8248 61.7187 45.4439 61.568 45.1631 61.2994C44.8823 61.0306 44.7245 60.6664 44.7245 60.2866V45.9636C44.7245 45.5837 44.8823 45.2194 45.1631 44.9508C45.4439 44.6822 45.8248 44.5312 46.2219 44.5312ZM53.7089 50.2605C53.7089 49.8806 53.5511 49.5162 53.2703 49.2477C52.9895 48.9791 52.6086 48.8281 52.2116 48.8281C51.8144 48.8281 51.4334 48.9791 51.1526 49.2477C50.8719 49.5162 50.7141 49.8806 50.7141 50.2605V55.9897C50.7141 56.3695 50.8719 56.7337 51.1526 57.0025C51.4334 57.2711 51.8144 57.4219 52.2116 57.4219C52.6086 57.4219 52.9895 57.2711 53.2703 57.0025C53.5511 56.7337 53.7089 56.3695 53.7089 55.9897V50.2605ZM58.2011 43.0991C58.5983 43.0991 58.979 43.25 59.2598 43.5186C59.5408 43.7872 59.6984 44.1514 59.6984 44.5312V61.7187C59.6984 62.0987 59.5408 62.463 59.2598 62.7316C58.979 63.0002 58.5983 63.1511 58.2011 63.1511C57.8039 63.1511 57.4231 63.0002 57.1423 62.7316C56.8614 62.463 56.7037 62.0987 56.7037 61.7187V44.5312C56.7037 44.1514 56.8614 43.7872 57.1423 43.5186C57.4231 43.25 57.8039 43.0991 58.2011 43.0991ZM65.6881 48.8281C65.6881 48.4483 65.5303 48.0841 65.2495 47.8155C64.9687 47.5469 64.5878 47.3959 64.1906 47.3959C63.7936 47.3959 63.4126 47.5469 63.1319 47.8155C62.8511 48.0841 62.6933 48.4483 62.6933 48.8281V57.4219C62.6933 57.8019 62.8511 58.1661 63.1319 58.4347C63.4126 58.7033 63.7936 58.8542 64.1906 58.8542C64.5878 58.8542 64.9687 58.7033 65.2495 58.4347C65.5303 58.1661 65.6881 57.8019 65.6881 57.4219V48.8281Z" fill="black"/>
</g>
</g>
</g>
</g>
<defs>
<clipPath id="clip0_2_59">
<rect width="100" height="100" fill="white"/>
</clipPath>
</defs>
</svg>
